<?xml version="1.0" standalone="no"?>
<!DOCTYPE svg PUBLIC "-//W3C//DTD SVG 20010904//EN"
 "http://www.w3.org/TR/2001/REC-SVG-20010904/DTD/svg10.dtd">
<svg version="1.0" xmlns="http://www.w3.org/2000/svg"
 width="527.000000pt" height="540.000000pt" viewBox="0 0 527.000000 540.000000"
 preserveAspectRatio="xMidYMid meet">

<g transform="translate(0.000000,540.000000) scale(0.100000,-0.100000)"
fill="#000000" stroke="none">
<path d="M2460 5349 c-502 -47 -992 -244 -1395 -559 -213 -167 -454 -436 -602
-670 -694 -1097 -483 -2551 492 -3406 561 -492 1295 -727 2025 -649 613 65
1140 312 1579 740 215 210 381 433 510 685 52 101 131 279 131 294 0 3 -79 6
-175 6 l-175 0 -58 -118 c-73 -145 -125 -231 -213 -349 -327 -441 -809 -759
-1339 -883 -241 -56 -545 -74 -784 -46 -672 78 -1255 422 -1646 970 -350 491
-496 1129 -395 1722 102 598 419 1119 900 1479 306 229 629 367 1022 436 170
31 537 34 708 6 491 -77 923 -289 1279 -626 177 -168 392 -467 488 -681 16
-35 35 -68 41 -72 13 -8 347 -11 347 -3 0 16 -72 179 -125 285 -455 894 -1380
1457 -2380 1449 -82 -1 -188 -5 -235 -10z"/>
<path d="M2485 4954 c-344 -50 -513 -99 -760 -219 -247 -120 -431 -252 -622
-446 -345 -350 -552 -766 -629 -1262 -22 -139 -25 -468 -6 -607 126 -913 750
-1634 1634 -1890 177 -51 322 -71 543 -77 221 -6 338 3 530 43 252 53 550 175
760 312 326 212 615 532 784 869 28 56 51 104 51 108 0 3 -77 5 -171 4 l-172
-2 -16 -29 c-29 -54 -143 -222 -184 -273 -63 -77 -194 -210 -277 -279 -228
-191 -520 -333 -835 -407 -75 -18 -132 -22 -353 -26 -281 -6 -346 0 -521 42
-552 134 -1039 531 -1286 1047 -254 533 -256 1147 -4 1676 95 201 214 370 372
531 323 327 717 519 1177 572 143 16 414 7 555 -20 295 -55 558 -168 795 -340
199 -144 421 -384 521 -562 58 -104 45 -99 234 -99 91 0 165 2 165 5 0 13 -76
161 -122 238 -131 216 -329 446 -512 593 -304 244 -648 402 -1036 475 -93 17
-161 22 -350 24 -129 2 -248 1 -265 -1z"/>
<path d="M2577 4579 c-655 -43 -1250 -438 -1547 -1029 -444 -886 -125 -1964
730 -2467 212 -124 434 -201 690 -239 170 -24 470 -15 635 20 443 94 818 326
1107 686 54 68 148 211 148 227 0 10 -42 13 -221 13 l-221 0 -86 -91 c-240
-253 -507 -400 -847 -466 -124 -23 -386 -23 -510 0 -299 58 -555 187 -765 384
-310 292 -470 663 -470 1091 0 205 34 380 108 563 78 190 174 332 331 489 177
176 350 284 580 360 382 127 787 97 1145 -84 152 -78 256 -155 394 -293 l123
-123 219 0 c174 0 220 3 220 13 0 7 -23 49 -52 92 -193 296 -450 521 -770 675
-298 142 -604 201 -941 179z"/>
</g>
</svg>
